Coordinates
version=1
nRows=17
nColumns=40
inDegrees=yes

Units are S.I. units (second, meters, Newtons, ...)
If the header above contains a line with 'inDegrees', this indicates whether rotational values are in degrees (yes) or radians (no).

endheader
time	pelvis_tilt	pelvis_list	pelvis_rotation	pelvis_tx	pelvis_ty	pelvis_tz	hip_flexion_r	hip_adduction_r	hip_rotation_r	knee_angle_r	knee_angle_r_beta	ankle_angle_r	subtalar_angle_r	mtp_angle_r	hip_flexion_l	hip_adduction_l	hip_rotation_l	knee_angle_l	knee_angle_l_beta	ankle_angle_l	subtalar_angle_l	mtp_angle_l	lumbar_extension	lumbar_bending	lumbar_rotation	arm_flex_r	arm_add_r	arm_rot_r	elbow_flex_r	pro_sup_r	wrist_flex_r	wrist_dev_r	arm_flex_l	arm_add_l	arm_rot_l	elbow_flex_l	pro_sup_l	wrist_flex_l	wrist_dev_l
      0.61500000	      1.21347206	     -0.90396330	     -7.63006137	      0.24054035	      0.90231243	      0.22386971	    -20.76541307	     -4.53629220	    -11.78443821	     14.45879170	      0.25235352	      3.50175653	     11.70631119	      0.00000000	     23.87690465	     -7.67615755	    -26.58868259	      9.81249167	      0.17126029	     -2.74077596	      7.32397943	      0.00000000	     -3.01791631	     -2.14193465	      0.68876681	     35.40061610	    -14.15785866	     35.40061610	     76.71004688	     44.89390189	      0.00000000	      0.00000000	     35.40061610	    -14.15785866	     35.40061610	     76.71004688	     44.89390189	      0.00000000	      0.00000000
      0.62000000	      1.63536397	     -0.24021924	     -8.07394607	      0.24815674	      0.90311076	      0.22409667	    -21.26429538	     -5.50115709	    -11.06398807	     14.91151438	      0.26025502	      2.66784745	     10.54560223	      0.00000000	     23.06062910	     -6.99953278	    -26.52199544	      9.95052150	      0.17366936	     -3.34708564	      5.83542376	      0.00000000	     -3.40055208	     -2.88266788	      1.84359243	     35.44782146	    -14.16465981	     35.44782146	     76.68307242	     44.89848554	      0.00000000	      0.00000000	     35.44782146	    -14.16465981	     35.44782146	     76.68307242	     44.89848554	      0.00000000	      0.00000000
      0.62500000	      1.78773380	     -0.00063019	     -8.11214061	      0.25581177	      0.90352011	      0.22342339	    -21.49213610	     -5.93504460	    -10.93515217	     15.42990903	      0.26930272	      1.45888379	      9.99396254	      0.00000000	     22.91756371	     -6.84331948	    -26.48159128	     10.87148416	      0.18974319	     -3.80921104	      5.17647443	      0.00000000	     -3.46180737	     -3.26702784	      2.10524491	     35.45262242	    -14.16535023	     35.45262242	     76.68034640	     44.89894139	      0.00000000	      0.00000000	     35.45262242	    -14.16535023	     35.45262242	     76.68034640	     44.89894139	      0.00000000	      0.00000000
      0.63000000	      1.93250953	      0.26917427	     -8.18213015	      0.26346216	      0.90398048	      0.22279665	    -21.65774796	     -6.40304825	    -10.75365010	     16.01864392	      0.27957808	      0.19347666	      9.23884591	      0.00000000	     22.76617348	     -6.66907174	    -26.43804701	     11.78877094	      0.20575287	     -4.17691530	      4.48887306	      0.00000000	     -3.54128855	     -3.67064348	      2.38541160	     35.45756308	    -14.16606051	     35.45756308	     76.67754441	     44.89940849	      0.00000000	      0.00000000	     35.45756308	    -14.16606051	     35.45756308	     76.67754441	     44.89940849	      0.00000000	      0.00000000
      0.63500000	      1.99978256	      0.47271859	     -8.36829361	      0.27096282	      0.90451811	      0.22239792	    -21.63713699	     -6.76943322	    -10.13428813	     16.75177151	      0.29237357	     -0.94505839	      7.70561160	      0.00000000	     22.65834704	     -6.61267383	    -26.37081927	     12.67132360	      0.22115632	     -4.46957364	      3.64187313	      0.00000000	     -3.51647455	     -3.95775295	      2.84483509	     35.47972569	    -14.16924391	     35.47972569	     76.66501377	     44.90148023	      0.00000000	      0.00000000	     35.47972569	    -14.16924391	     35.47972569	     76.66501377	     44.90148023	      0.00000000	      0.00000000
      0.64000000	      2.16619219	      0.66053590	     -8.29500685	      0.27865279	      0.90524489	      0.22148757	    -21.79152090	     -7.10947461	    -10.10263386	     17.36731068	      0.30311675	     -2.50980381	      7.05313336	      0.00000000	     22.47123391	     -6.45611119	    -26.15164483	     13.53501120	      0.23623051	     -4.84238589	      3.20463722	      0.00000000	     -3.65398976	     -4.27572949	      3.07054930	     35.48398999	    -14.16985584	     35.48398999	     76.66261049	     44.90187446	      0.00000000	      0.00000000	     35.48398999	    -14.16985584	     35.48398999	     76.66261049	     44.90187446	      0.00000000	      0.00000000
      0.64500000	      2.31771122	      0.85811314	     -8.22015664	      0.28634274	      0.90601301	      0.22051066	    -21.84714937	     -7.45982781	    -10.05082448	     18.11598198	      0.31618353	     -4.11567141	      6.14998140	      0.00000000	     22.29472482	     -6.28483540	    -25.95661046	     14.40717389	      0.25145262	     -5.08323046	      2.70814237	      0.00000000	     -3.76582910	     -4.53972669	      3.26652706	     35.48833321	    -14.17047893	     35.48833321	     76.66016506	     44.90227461	      0.00000000	      0.00000000	     35.48833321	    -14.17047893	     35.48833321	     76.66016506	     44.90227461	      0.00000000	      0.00000000
      0.65000000	      2.26490384	      0.89332873	     -8.15930651	      0.29380788	      0.90659842	      0.21955937	    -21.55844187	     -7.56229837	     -9.63382288	     19.09911029	      0.33334236	     -5.50507626	      4.35544080	      0.00000000	     22.36903808	     -6.31545056	    -25.57972308	     15.36133255	      0.26810583	     -5.15393979	      1.99442536	      0.00000000	     -3.66002591	     -4.56302289	      3.48008395	     35.50532114	    -14.17291444	     35.50532114	     76.65062337	     44.90382555	      0.00000000	      0.00000000	     35.50532114	    -14.17291444	     35.50532114	     76.65062337	     44.90382555	      0.00000000	      0.00000000
      0.65500000	      2.44643673	      0.98877468	     -8.00633516	      0.30150935	      0.90761000	      0.21838039	    -21.57504164	     -7.80228261	     -9.70653525	     19.91390849	      0.34756327	     -7.37700406	      3.61681284	      0.00000000	     22.10166363	     -6.17937414	    -25.27638144	     16.11554760	      0.28126937	     -5.34496471	      1.70651302	      0.00000000	     -3.82404784	     -4.73704571	      3.60755158	     35.50934184	    -14.17349044	     35.50934184	     76.64837067	     44.90418952	      0.00000000	      0.00000000	     35.50934184	    -14.17349044	     35.50934184	     76.64837067	     44.90418952	      0.00000000	      0.00000000
      0.66000000	      2.37098987	      0.96731135	     -7.77836309	      0.30907348	      0.90826841	      0.21697446	    -21.17281915	     -7.83059067	     -9.57883341	     21.05082616	      0.36740623	     -8.98170279	      1.85990724	      0.00000000	     22.18475302	     -6.16293218	    -24.75387811	     17.01273959	      0.29692832	     -5.29697945	      1.10289892	      0.00000000	     -3.72139270	     -4.58106635	      3.64929653	     35.52723853	    -14.17605258	     35.52723853	     76.63836856	     44.90579450	      0.00000000	      0.00000000	     35.52723853	    -14.17605258	     35.52723853	     76.63836856	     44.90579450	      0.00000000	      0.00000000
      0.66500000	      2.56593792	      1.02521410	     -7.57377770	      0.31676111	      0.90941189	      0.21558307	    -21.07925755	     -8.04265619	     -9.74225102	     22.03976524	      0.38466647	    -10.93848328	      1.03774369	      0.00000000	     21.85193412	     -5.99976417	    -24.40684248	     17.67910491	      0.30855859	     -5.30342156	      0.87921603	      0.00000000	     -3.92470073	     -4.64490602	      3.69216048	     35.53219764	    -14.17676196	     35.53219764	     76.63560462	     44.90623502	      0.00000000	      0.00000000	     35.53219764	    -14.17676196	     35.53219764	     76.63560462	     44.90623502	      0.00000000	      0.00000000
      0.67000000	      2.45365259	      0.98330859	     -7.28712820	      0.32429588	      0.91006951	      0.21398866	    -20.47558066	     -8.08026034	     -9.80619815	     23.43897852	      0.40908735	    -12.56339506	     -0.63015743	      0.00000000	     21.91179013	     -5.92395737	    -23.79384657	     18.43465432	      0.32174541	     -5.18016609	      0.28972296	      0.00000000	     -3.72888946	     -4.50415098	      3.62795569	     35.55382428	    -14.17985305	     35.55382428	     76.62358647	     44.90813537	      0.00000000	      0.00000000	     35.55382428	    -14.17985305	     35.55382428	     76.62358647	     44.90813537	      0.00000000	      0.00000000
      0.67500000	      2.57068413	      1.05238823	     -6.98130080	      0.33195298	      0.91108220	      0.21233469	    -20.13467937	     -8.29834858	    -10.11476522	     24.74103608	      0.43181254	    -14.39208744	     -1.82280861	      0.00000000	     21.64331949	     -5.67191988	    -23.36875340	     19.03395583	      0.33220520	     -5.04411592	      0.01901813	      0.00000000	     -3.85459111	     -4.51266227	      3.58155337	     35.56825418	    -14.18191293	     35.56825418	     76.61560242	     44.90938380	      0.00000000	      0.00000000	     35.56825418	    -14.18191293	     35.56825418	     76.61560242	     44.90938380	      0.00000000	      0.00000000
      0.68000000	      2.82007415	      1.04883706	     -6.77472903	      0.33955738	      0.91243943	      0.21081359	    -19.89249712	     -8.51210735	    -10.37139063	     26.00897314	      0.45394222	    -16.35121147	     -2.59778910	      0.00000000	     21.11762907	     -5.48261011	    -23.01516844	     19.46731150	      0.33976868	     -4.82955153	     -0.08365683	      0.00000000	     -4.12470830	     -4.48952170	      3.52378702	     35.57258137	    -14.18253022	     35.57258137	     76.61321365	     44.90975526	      0.00000000	      0.00000000	     35.57258137	    -14.18253022	     35.57258137	     76.61321365	     44.90975526	      0.00000000	      0.00000000
      0.68500000	      2.70291328	      1.28142670	     -6.52121144	      0.34701208	      0.91297428	      0.20924258	    -18.96902426	     -8.98353549	    -10.80879677	     27.92580168	      0.48739719	    -17.79781169	     -4.20292602	      0.00000000	     21.06037692	     -5.04405069	    -22.58667256	     19.93912644	      0.34800341	     -4.66598940	     -0.69590769	      0.00000000	     -3.88597224	     -4.70744359	      3.43261763	     35.59789612	    -14.18613769	     35.59789612	     76.59929157	     44.91189835	      0.00000000	      0.00000000	     35.59789612	    -14.18613769	     35.59789612	     76.59929157	     44.91189835	      0.00000000	      0.00000000
      0.69000000	      2.97635823	      1.26502419	     -6.29639918	      0.35453071	      0.91440408	      0.20760635	    -18.64315309	     -9.21634990	    -11.11361913	     29.34084055	      0.51209427	    -19.64807520	     -4.97750989	      0.00000000	     20.42201964	     -4.81485824	    -22.26615080	     20.20514852	      0.35264637	     -4.33698163	     -0.69802869	      0.00000000	     -4.22045414	     -4.61226487	      3.31094738	     35.60233677	    -14.18676991	     35.60233677	     76.59685711	     44.91227020	      0.00000000	      0.00000000	     35.60233677	    -14.18676991	     35.60233677	     76.59685711	     44.91227020	      0.00000000	      0.00000000
      0.69500000	      2.85704422	      1.74422470	     -6.21870506	      0.36193514	      0.91481234	      0.20645639	    -17.46812988	    -10.09719815	    -11.60318998	     31.63931930	      0.55221029	    -20.86794399	     -6.58781850	      0.00000000	     20.22239007	     -4.13306584	    -22.12588303	     20.40900335	      0.35620431	     -4.18593720	     -1.33194059	      0.00000000	     -3.86055784	     -5.25375487	      3.32530813	     35.63213122	    -14.19100714	     35.63213122	     76.58058721	     44.91472928	      0.00000000	      0.00000000	     35.63213122	    -14.19100714	     35.63213122	     76.58058721	     44.91472928	      0.00000000	      0.00000000
